<mxfile host="app.diagrams.net" modified="2023-10-19T06:21:07.842Z" agent="Mozilla/5.0 (Windows NT 10.0; Win64; x64) AppleWebKit/537.36 (KHTML, like Gecko) Chrome/118.0.0.0 Safari/537.36" etag="DLDYkILC0DcSbVUElaJE" version="22.0.4" type="device">
  <diagram name="페이지-1" id="iHmmfnpJJlwcF7AFGgms">
    <mxGraphModel dx="1674" dy="790" grid="1" gridSize="10" guides="1" tooltips="1" connect="1" arrows="1" fold="1" page="1" pageScale="1" pageWidth="827" pageHeight="1169" math="0" shadow="0">
      <root>
        <mxCell id="0" />
        <mxCell id="1" parent="0" />
        <mxCell id="Ufjf0JQTbra6vvND680m-1" value="시작" style="rounded=1;whiteSpace=wrap;html=1;" vertex="1" parent="1">
          <mxGeometry x="10" y="30" width="120" height="60" as="geometry" />
        </mxCell>
        <mxCell id="Ufjf0JQTbra6vvND680m-2" value="answer = ran.nextInt(100)+1;&lt;br&gt;int user ;&lt;br&gt;int count;" style="rounded=1;whiteSpace=wrap;html=1;" vertex="1" parent="1">
          <mxGeometry x="220" y="30" width="190" height="60" as="geometry" />
        </mxCell>
        <mxCell id="Ufjf0JQTbra6vvND680m-3" value="while(true){&lt;br&gt;System.out.print(&quot;정답을 입력하세요 : &quot;);&lt;br&gt;user = sc.nextInt();&lt;br&gt;count++;" style="rhombus;whiteSpace=wrap;html=1;" vertex="1" parent="1">
          <mxGeometry x="170" y="270" width="290" height="140" as="geometry" />
        </mxCell>
        <mxCell id="Ufjf0JQTbra6vvND680m-6" value="if(answer != user){&lt;br&gt;if(answer &amp;gt; user&lt;br&gt;System.out.print(&quot;UP&quot;)" style="rounded=1;whiteSpace=wrap;html=1;" vertex="1" parent="1">
          <mxGeometry x="550" y="230" width="160" height="60" as="geometry" />
        </mxCell>
        <mxCell id="Ufjf0JQTbra6vvND680m-16" style="edgeStyle=orthogonalEdgeStyle;rounded=0;orthogonalLoop=1;jettySize=auto;html=1;exitX=1;exitY=0.5;exitDx=0;exitDy=0;" edge="1" parent="1" source="Ufjf0JQTbra6vvND680m-7">
          <mxGeometry relative="1" as="geometry">
            <mxPoint x="320" y="170" as="targetPoint" />
            <Array as="points">
              <mxPoint x="751" y="410" />
              <mxPoint x="751" y="170" />
            </Array>
          </mxGeometry>
        </mxCell>
        <mxCell id="Ufjf0JQTbra6vvND680m-7" value="System.out.print(&quot;DOWN&quot;)&lt;br&gt;" style="rounded=1;whiteSpace=wrap;html=1;" vertex="1" parent="1">
          <mxGeometry x="550" y="380" width="170" height="60" as="geometry" />
        </mxCell>
        <mxCell id="Ufjf0JQTbra6vvND680m-8" value="" style="endArrow=classic;html=1;rounded=0;exitX=1;exitY=0.5;exitDx=0;exitDy=0;entryX=0;entryY=0.5;entryDx=0;entryDy=0;" edge="1" parent="1" source="Ufjf0JQTbra6vvND680m-3" target="Ufjf0JQTbra6vvND680m-6">
          <mxGeometry width="50" height="50" relative="1" as="geometry">
            <mxPoint x="420" y="290" as="sourcePoint" />
            <mxPoint x="440" y="380" as="targetPoint" />
          </mxGeometry>
        </mxCell>
        <mxCell id="Ufjf0JQTbra6vvND680m-9" value="" style="endArrow=classic;html=1;rounded=0;exitX=1;exitY=0.5;exitDx=0;exitDy=0;entryX=0;entryY=0.5;entryDx=0;entryDy=0;" edge="1" parent="1" source="Ufjf0JQTbra6vvND680m-3" target="Ufjf0JQTbra6vvND680m-7">
          <mxGeometry width="50" height="50" relative="1" as="geometry">
            <mxPoint x="390" y="430" as="sourcePoint" />
            <mxPoint x="550" y="360" as="targetPoint" />
          </mxGeometry>
        </mxCell>
        <mxCell id="Ufjf0JQTbra6vvND680m-10" value="NO" style="text;html=1;strokeColor=none;fillColor=none;align=center;verticalAlign=middle;whiteSpace=wrap;rounded=0;" vertex="1" parent="1">
          <mxGeometry x="450" y="360" width="60" height="30" as="geometry" />
        </mxCell>
        <mxCell id="Ufjf0JQTbra6vvND680m-11" value="NO" style="text;html=1;strokeColor=none;fillColor=none;align=center;verticalAlign=middle;whiteSpace=wrap;rounded=0;" vertex="1" parent="1">
          <mxGeometry x="460" y="270" width="60" height="30" as="geometry" />
        </mxCell>
        <mxCell id="Ufjf0JQTbra6vvND680m-12" value="" style="endArrow=classic;html=1;rounded=0;exitX=1;exitY=0.5;exitDx=0;exitDy=0;entryX=0;entryY=0.5;entryDx=0;entryDy=0;" edge="1" parent="1" source="Ufjf0JQTbra6vvND680m-1" target="Ufjf0JQTbra6vvND680m-2">
          <mxGeometry width="50" height="50" relative="1" as="geometry">
            <mxPoint x="390" y="430" as="sourcePoint" />
            <mxPoint x="440" y="380" as="targetPoint" />
          </mxGeometry>
        </mxCell>
        <mxCell id="Ufjf0JQTbra6vvND680m-13" value="" style="endArrow=classic;html=1;rounded=0;exitX=0.5;exitY=1;exitDx=0;exitDy=0;entryX=0.5;entryY=0;entryDx=0;entryDy=0;" edge="1" parent="1" source="Ufjf0JQTbra6vvND680m-2" target="Ufjf0JQTbra6vvND680m-3">
          <mxGeometry width="50" height="50" relative="1" as="geometry">
            <mxPoint x="390" y="70" as="sourcePoint" />
            <mxPoint x="440" y="20" as="targetPoint" />
          </mxGeometry>
        </mxCell>
        <mxCell id="Ufjf0JQTbra6vvND680m-14" value="" style="endArrow=classic;html=1;rounded=0;exitX=0.5;exitY=0;exitDx=0;exitDy=0;" edge="1" parent="1" source="Ufjf0JQTbra6vvND680m-6">
          <mxGeometry width="50" height="50" relative="1" as="geometry">
            <mxPoint x="390" y="370" as="sourcePoint" />
            <mxPoint x="320" y="120" as="targetPoint" />
            <Array as="points">
              <mxPoint x="630" y="120" />
            </Array>
          </mxGeometry>
        </mxCell>
        <mxCell id="Ufjf0JQTbra6vvND680m-17" value="" style="endArrow=classic;html=1;rounded=0;exitX=0.5;exitY=1;exitDx=0;exitDy=0;" edge="1" parent="1" source="Ufjf0JQTbra6vvND680m-3">
          <mxGeometry width="50" height="50" relative="1" as="geometry">
            <mxPoint x="390" y="370" as="sourcePoint" />
            <mxPoint x="315" y="480" as="targetPoint" />
          </mxGeometry>
        </mxCell>
        <mxCell id="Ufjf0JQTbra6vvND680m-19" value="System.out.printf(&quot;정답입니다. (%d번만에 정답입니다&quot;count);" style="rounded=1;whiteSpace=wrap;html=1;" vertex="1" parent="1">
          <mxGeometry x="222.5" y="480" width="185" height="60" as="geometry" />
        </mxCell>
        <mxCell id="Ufjf0JQTbra6vvND680m-23" value="" style="endArrow=classic;html=1;rounded=0;exitX=0.5;exitY=1;exitDx=0;exitDy=0;" edge="1" parent="1" source="Ufjf0JQTbra6vvND680m-19" target="Ufjf0JQTbra6vvND680m-24">
          <mxGeometry width="50" height="50" relative="1" as="geometry">
            <mxPoint x="350" y="570" as="sourcePoint" />
            <mxPoint x="315" y="640" as="targetPoint" />
          </mxGeometry>
        </mxCell>
        <mxCell id="Ufjf0JQTbra6vvND680m-24" value="끝" style="rounded=1;whiteSpace=wrap;html=1;" vertex="1" parent="1">
          <mxGeometry x="255" y="610" width="120" height="60" as="geometry" />
        </mxCell>
      </root>
    </mxGraphModel>
  </diagram>
</mxfile>
